<?xml version="1.0" encoding="UTF-8"?>
<svg version="1.1" xmlns="http://www.w3.org/2000/svg" width="500" height="500">
<path d="M0 0 C165 0 330 0 500 0 C500 165 500 330 500 500 C335 500 170 500 0 500 C0 335 0 170 0 0 Z " fill="#000000" transform="translate(0,0)"/>
<path d="M0 0 C2.56055697 -0.00966613 5.12029576 -0.0407534 7.68066406 -0.07226562 C22.48937941 -0.16981609 35.95267601 1.86299104 49.96191406 6.92773438 C50.93676758 7.27441162 51.91162109 7.62108887 52.91601562 7.97827148 C70.99280892 14.57044199 86.44105743 24.34706275 101.46191406 36.24023438 C102.41324219 36.95824219 103.36457031 37.67625 104.34472656 38.41601562 C105.39273438 39.31900391 105.39273438 39.31900391 106.46191406 40.24023438 C106.46191406 40.90023437 106.46191406 41.56023437 106.46191406 42.24023438 C107.02652344 42.47226563 107.59113281 42.70429688 108.17285156 42.94335938 C128.54131997 54.48317424 143.54135207 89.18849431 149.55175781 110.57617188 C150.00228516 112.38988281 150.00228516 112.38988281 150.46191406 114.24023438 C150.64383301 114.95727539 150.82575195 115.67431641 151.01318359 116.41308594 C160.44030868 155.03003281 154.0984996 197.11035106 133.71923828 231.20898438 C126.99567611 242.07112754 118.91075421 251.68810926 110.46191406 261.24023438 C90.51094027 258.13831619 70.71018488 233.20485112 57.93847656 218.87402344 C54.95579856 215.57374546 51.88797596 212.35214394 48.83691406 209.11523438 C44.04235446 204.01616352 39.29491378 198.8839709 34.63378906 193.66210938 C32.09824684 190.83470618 29.53189873 188.0362682 26.96191406 185.24023438 C23.47138363 181.43797333 19.98764775 177.62992037 16.52441406 173.80273438 C15.83476562 173.04089844 15.14511719 172.2790625 14.43457031 171.49414062 C8.46191406 164.66993735 8.46191406 164.66993735 8.46191406 163.24023438 C9.22375 163.09328125 9.98558594 162.94632813 10.77050781 162.79492188 C21.26554077 160.51510198 29.33100679 156.25837123 35.46191406 147.24023438 C42.30850074 135.79121999 44.81403769 122.41049621 41.77441406 109.26757812 C38.22703853 99.70444493 32.40247206 93.08114564 23.46191406 88.24023438 C17.26065909 85.44037322 11.72558803 84.12543613 4.94921875 84.03491211 C4.30489899 84.02501251 3.66057922 84.01511292 2.99673462 84.00491333 C0.87578962 83.97343008 -1.24517775 83.94859335 -3.36621094 83.92382812 C-4.84023609 83.9032472 -6.31425549 83.88225043 -7.78826904 83.8608551 C-11.66141085 83.80575197 -15.53460488 83.75629103 -19.40783691 83.70800781 C-23.36275868 83.65770674 -27.31760492 83.60206566 -31.27246094 83.546875 C-39.02760526 83.43943733 -46.78281252 83.33796064 -54.53808594 83.24023438 C-54.53808594 83.90023437 -54.53808594 84.56023437 -54.53808594 85.24023438 C-53.66796875 85.24410156 -53.66796875 85.24410156 -52.78027344 85.24804688 C-48.26451047 85.4715995 -45.33615567 85.86542908 -42.03808594 89.11523438 C-38.89211486 92.59328018 -38.41264332 95.67248771 -38.39091492 100.2681427 C-38.38375961 101.30695084 -38.37660431 102.34575897 -38.36923218 103.41604614 C-38.36654327 104.55532562 -38.36385437 105.6946051 -38.36108398 106.8684082 C-38.35451279 108.06865128 -38.34794159 109.26889435 -38.34117126 110.50550842 C-38.32142483 114.48609668 -38.30977163 118.46664466 -38.29980469 122.44726562 C-38.29575632 123.81877856 -38.29163938 125.19029129 -38.28745461 126.56180382 C-38.26840875 133.00534151 -38.25417608 139.44886779 -38.24584264 145.89242822 C-38.23607005 153.32556905 -38.20974781 160.75841212 -38.16934174 168.19144803 C-38.13916594 173.94017723 -38.12437242 179.68882112 -38.12106162 185.43762797 C-38.11871291 188.86963825 -38.10977629 192.3013302 -38.08460045 195.73325539 C-38.06031464 199.56370526 -38.06115519 203.39337404 -38.06811523 207.22387695 C-38.05530518 208.35708374 -38.04249512 209.49029053 -38.02929688 210.65783691 C-38.07889136 218.137685 -39.06510775 221.64322125 -44.28808594 227.05273438 C-47.63997189 228.82178529 -50.77166096 228.92636563 -54.53808594 229.24023438 C-54.53808594 229.90023437 -54.53808594 230.56023437 -54.53808594 231.24023438 C-39.35808594 231.24023438 -24.17808594 231.24023438 -8.53808594 231.24023438 C-8.53808594 230.58023438 -8.53808594 229.92023438 -8.53808594 229.24023438 C-9.56933594 229.32273437 -10.60058594 229.40523437 -11.66308594 229.49023438 C-16.26107445 229.19358995 -18.07454883 228.23147097 -21.53808594 225.24023438 C-25.56563167 219.48164038 -24.93955741 213.36678594 -24.87866211 206.62548828 C-24.87910019 205.35664795 -24.87953827 204.08780762 -24.87998962 202.78051758 C-24.88084798 199.31391262 -24.86324853 195.84762106 -24.84226775 192.38108873 C-24.82347405 188.75361769 -24.8217484 185.12613893 -24.81819153 181.49862671 C-24.80887894 174.63514301 -24.78427591 167.7718032 -24.75414306 160.90838277 C-24.72057447 153.09220954 -24.70410688 145.27602932 -24.68905675 137.45980191 C-24.65772558 121.38652859 -24.60498051 105.31339987 -24.53808594 89.24023438 C-20.44888514 89.14021629 -16.36017283 89.06823422 -12.27001953 89.02050781 C-10.88317437 89.00058095 -9.49641112 88.97342878 -8.10986328 88.93847656 C1.60593324 88.69996603 10.23359251 89.02485143 18.08300781 95.35351562 C27.66307906 106.95261264 28.58507874 118.59082 27.46191406 133.24023438 C25.96875157 141.0008751 21.67823313 146.48464046 15.46191406 151.24023438 C7.56196658 155.92319294 -0.48633023 156.40287176 -9.47558594 156.30273438 C-10.25482422 156.29822266 -11.0340625 156.29371094 -11.83691406 156.2890625 C-13.73733862 156.27740345 -15.637723 156.25947314 -17.53808594 156.24023438 C-17.53808594 157.23023438 -17.53808594 158.22023437 -17.53808594 159.24023438 C-16.81621094 159.48773438 -16.09433594 159.73523438 -15.35058594 159.99023438 C-9.88490819 162.41942448 -6.43356937 166.37565114 -2.62402344 170.83398438 C-0.15037575 173.68748059 2.40127442 176.46515907 4.96191406 179.24023438 C7.98152846 182.51845555 10.98394445 185.80605436 13.89941406 189.17773438 C17.01155616 192.76982127 20.23065366 196.25573575 23.46191406 199.74023438 C27.26904161 203.84609745 31.02504676 207.98151462 34.68847656 212.21679688 C36.91329499 214.75524609 39.18694726 217.24665214 41.46191406 219.74023438 C44.34611506 222.90284995 47.21368882 226.07463925 50.02441406 229.30273438 C50.85199219 230.25019531 50.85199219 230.25019531 51.69628906 231.21679688 C52.98032703 232.68832711 54.26115187 234.16266297 55.54003906 235.63867188 C68.52256119 250.39153793 83.0944163 261.17581216 101.46191406 268.24023438 C83.44950898 287.08809423 57.51844291 297.86734049 32.46191406 303.24023438 C31.79780518 303.41828613 31.13369629 303.59633789 30.44946289 303.77978516 C22.31336018 305.77031761 14.08110513 305.54168277 5.7590332 305.50097656 C3.1656126 305.49030105 0.57289115 305.50089288 -2.02050781 305.51367188 C-11.37100628 305.52195175 -20.33747018 305.10123954 -29.53808594 303.24023438 C-30.27663818 303.09424805 -31.01519043 302.94826172 -31.77612305 302.79785156 C-60.31600896 296.75369469 -83.93678811 282.42146979 -105.53808594 263.24023438 C-106.19164062 262.66015625 -106.84519531 262.08007812 -107.51855469 261.48242188 C-132.52087696 237.8460222 -150.49885094 199.95952605 -151.66113281 165.60302734 C-151.74210599 162.03993773 -151.76895899 158.47775208 -151.77832031 154.91381836 C-151.78796042 152.70647521 -151.819038 150.50009204 -151.85058594 148.29296875 C-152.14751728 108.22485174 -133.50095612 71.05247555 -106.03857422 42.73388672 C-77.43073179 14.25637615 -39.90754032 0.09073332 0 0 Z " fill="#DFDFDF" transform="translate(243.5380859375,97.759765625)"/>
<path d="M0 0 C15.18 0 30.36 0 46 0 C46 0.66 46 1.32 46 2 C45.40832031 2.09796875 44.81664062 2.1959375 44.20703125 2.296875 C39.15165852 3.25351976 35.75233265 4.24766735 32 8 C30.71031322 10.57937355 30.86240936 12.44256342 30.84609985 15.33198547 C30.83749939 16.4634198 30.82889893 17.59485413 30.82003784 18.76057434 C30.81577789 20.00787827 30.81151794 21.25518219 30.80712891 22.5402832 C30.79895142 23.84927582 30.79077393 25.15826843 30.78234863 26.50692749 C30.75612402 30.85485778 30.74082087 35.20279773 30.7265625 39.55078125 C30.72120305 41.04706516 30.71582555 42.54334901 30.71043015 44.0396328 C30.68880103 50.26329495 30.67006393 56.48695449 30.65880775 62.71064472 C30.64256577 71.63261728 30.60938291 80.55415451 30.55240691 89.47596294 C30.51371838 95.7477918 30.49417641 102.01950418 30.48888719 108.29144925 C30.48523224 112.03817416 30.47319688 115.78443483 30.44078445 119.53103065 C30.40513733 123.71146192 30.40907183 127.8909566 30.41650391 132.0715332 C30.40009857 133.31276443 30.38369324 134.55399567 30.36679077 135.83283997 C30.18321997 142.59912338 30.18321997 142.59912338 33.37937927 148.2278595 C35.97087709 149.98030624 38.23223115 151.18496323 41.18359375 152.2109375 C42.18261719 152.56510742 43.18164062 152.91927734 44.2109375 153.28417969 C45.27570313 153.64415039 46.34046875 154.00412109 47.4375 154.375 C48.54480469 154.76075195 49.65210938 155.14650391 50.79296875 155.54394531 C61.46419664 159.23197527 72.20570497 162.69148561 83 166 C83.74652832 166.23170898 84.49305664 166.46341797 85.26220703 166.70214844 C115.86273542 176.17655618 145.76087542 182.79265427 177.01171875 172.55078125 C179 172 179 172 182 172 C180.19924107 177.4022768 173.94075731 179.46387274 169.07177734 181.98779297 C165.69966768 183.63530259 162.25816337 185.04527593 158.75 186.375 C158.12601318 186.61323486 157.50202637 186.85146973 156.85913086 187.09692383 C129.65944273 196.91204765 100.3570109 189.10714665 75.1640625 177.30078125 C69.85890629 174.77103105 64.57931493 172.1896643 59.29980469 169.60693359 C30.31729126 155.19941805 30.31729126 155.19941805 -1 148 C-1 147.34 -1 146.68 -1 146 C-0.40832031 145.90203125 0.18335938 145.8040625 0.79296875 145.703125 C5.83373164 144.74924491 9.31148276 143.80029049 13 140 C14.92160346 136.87093243 15.2538875 134.49895859 15.26742554 130.85183716 C15.28022049 129.29156296 15.28022049 129.29156296 15.29327393 127.69976807 C15.29236755 126.56408386 15.29146118 125.42839966 15.29052734 124.25830078 C15.29724457 123.05791168 15.30396179 121.85752258 15.31088257 120.62075806 C15.32662564 117.33140131 15.33323761 114.04219611 15.33451414 110.75280619 C15.33593676 108.69637758 15.34020846 106.63997536 15.34550858 104.58355331 C15.36400645 97.40545728 15.37217951 90.22743548 15.37060547 83.04931641 C15.36940419 76.3645553 15.39050419 69.68011714 15.4220928 62.99543774 C15.44826858 57.25092177 15.45897222 51.5065112 15.45769465 45.76193607 C15.45718538 42.33331309 15.46284847 38.90497715 15.48405075 35.47641373 C15.50362695 31.65083198 15.49790453 27.82608319 15.48583984 24.00048828 C15.50269836 22.30303467 15.50269836 22.30303467 15.51989746 20.57128906 C15.47058012 14.42308084 15.21424848 10.62529852 11 6 C7.41456728 3.78771172 4.15917236 2.61164299 0 2 C0 1.34 0 0.68 0 0 Z " fill="#060606" transform="translate(139,193)"/>
<path d="M0 0 C0 1.98 0 3.96 0 6 C-3.75 7.125 -3.75 7.125 -6 6 C-6.33 6.99 -6.66 7.98 -7 9 C-7.66 9 -8.32 9 -9 9 C-8.67 7.35 -8.34 5.7 -8 4 C-7.34 4 -6.68 4 -6 4 C-6 3.34 -6 2.68 -6 2 C-6.99 1.67 -7.98 1.34 -9 1 C-6.04335481 -0.4783226 -3.25770263 -0.06032783 0 0 Z " fill="#232323" transform="translate(378,238)"/>
<path d="M0 0 C1.2065625 0.0309375 1.2065625 0.0309375 2.4375 0.0625 C3.5625 3.8125 3.5625 3.8125 2.4375 6.0625 C3.7575 6.0625 5.0775 6.0625 6.4375 6.0625 C6.4375 6.7225 6.4375 7.3825 6.4375 8.0625 C3.4675 7.5675 3.4675 7.5675 0.4375 7.0625 C0.1075 8.0525 -0.2225 9.0425 -0.5625 10.0625 C-1.5525 7.0925 -2.5425 4.1225 -3.5625 1.0625 C-2.5625 0.0625 -2.5625 0.0625 0 0 Z " fill="#393939" transform="translate(200.5625,127.9375)"/>
<path d="M0 0 C2.1875 0.3125 2.1875 0.3125 4 1 C4 2.32 4 3.64 4 5 C5.32 5.33 6.64 5.66 8 6 C6.35 6.33 4.7 6.66 3 7 C3.33 7.99 3.66 8.98 4 10 C0.17053157 8.54744301 -1.12050295 6.57104439 -3 3 C-1.75 1.4375 -1.75 1.4375 0 0 Z " fill="#1A1A1A" transform="translate(155,154)"/>
<path d="M0 0 C0.66 0 1.32 0 2 0 C3.625 2 3.625 2 5 4 C5.33 2.68 5.66 1.36 6 0 C6.66 0 7.32 0 8 0 C8 2.97 8 5.94 8 9 C4 7 4 7 3 5 C2.67 6.65 2.34 8.3 2 10 C1.34 10 0.68 10 0 10 C0 6.7 0 3.4 0 0 Z " fill="#212121" transform="translate(234,121)"/>
<path d="M0 0 C3.48670834 1.1094072 6.77484237 2.26337666 10 4 C10 4.66 10 5.32 10 6 C3.375 9 3.375 9 0 9 C0 8.34 0 7.68 0 7 C0.66 7 1.32 7 2 7 C2 5.35 2 3.7 2 2 C1.34 2 0.68 2 0 2 C0 1.34 0 0.68 0 0 Z " fill="#3E3E3E" transform="translate(369,256)"/>
<path d="M0 0 C4.455 0.99 4.455 0.99 9 2 C9 2.66 9 3.32 9 4 C7.68 4 6.36 4 5 4 C4.67 5.32 4.34 6.64 4 8 C4.99 8 5.98 8 7 8 C7 8.66 7 9.32 7 10 C1.46153846 9.38461538 1.46153846 9.38461538 -0.875 7.4375 C-1.24625 6.963125 -1.6175 6.48875 -2 6 C-0.35 6 1.3 6 3 6 C3 4.68 3 3.36 3 2 C2.01 2 1.02 2 0 2 C0 1.34 0 0.68 0 0 Z " fill="#343434" transform="translate(363,294)"/>
<path d="M0 0 C3.3 0.33 6.6 0.66 10 1 C8.66667905 4.99996286 6.5042173 5.83782337 3 8 C2.34 7.67 1.68 7.34 1 7 C1.33 5.35 1.66 3.7 2 2 C1.34 2 0.68 2 0 2 C0 1.34 0 0.68 0 0 Z " fill="#393939" transform="translate(365,220)"/>
<path d="M0 0 C0.66 0 1.32 0 2 0 C2 2.64 2 5.28 2 8 C3.32 8 4.64 8 6 8 C6 5.69 6 3.38 6 1 C6.66 1 7.32 1 8 1 C8.125 4.375 8.125 4.375 8 8 C6 10 6 10 3.4375 10.1875 C1 10 1 10 0 9 C-0.07179964 7.48071962 -0.08392007 5.95832518 -0.0625 4.4375 C-0.05347656 3.61121094 -0.04445312 2.78492187 -0.03515625 1.93359375 C-0.02355469 1.29550781 -0.01195312 0.65742187 0 0 Z " fill="#2B2B2B" transform="translate(254,121)"/>
<path d="M0 0 C2.9719385 1.12451727 5.33440687 2.22293791 8 4 C8 4.66 8 5.32 8 6 C6.35 6.33 4.7 6.66 3 7 C3.66 8.32 4.32 9.64 5 11 C1.64404172 10.40072174 -0.37801226 9.15377564 -3 7 C-2.67 6.34 -2.34 5.68 -2 5 C-1.01 5.33 -0.02 5.66 1 6 C1.33 5.01 1.66 4.02 2 3 C1.34 2.67 0.68 2.34 0 2 C0 1.34 0 0.68 0 0 Z " fill="#222222" transform="translate(133,178)"/>
<path d="M0 0 C1.9375 0.8125 1.9375 0.8125 4 2 C4.33 2.99 4.66 3.98 5 5 C2.525 4.01 2.525 4.01 0 3 C0.66 4.32 1.32 5.64 2 7 C0.68 6.67 -0.64 6.34 -2 6 C-1.67 7.65 -1.34 9.3 -1 11 C-2.65 9.35 -4.3 7.7 -6 6 C-4.02 4.02 -2.04 2.04 0 0 Z " fill="#232323" transform="translate(337,159)"/>
<path d="M0 0 C3.36591866 1.44253657 5.51047079 3.33264727 8 6 C6.35 6 4.7 6 3 6 C2.7763932 8.9254644 2.7763932 8.9254644 4 11 C1.0280615 9.87548273 -1.33440687 8.77706209 -4 7 C-4 6.34 -4 5.68 -4 5 C-2.68 5.33 -1.36 5.66 0 6 C0 4.68 0 3.36 0 2 C0 1.34 0 0.68 0 0 Z " fill="#212121" transform="translate(347,328)"/>
<path d="M0 0 C0.66 0 1.32 0 2 0 C1.67 1.32 1.34 2.64 1 4 C2.32 4 3.64 4 5 4 C5.66 4.33 6.32 4.66 7 5 C5.35 7.31 3.7 9.62 2 12 C1.33333333 10 0.66666667 8 0 6 C-1.98 6.99 -1.98 6.99 -4 8 C-3.40312566 4.65750371 -2.26396123 2.53563658 0 0 Z " fill="#202020" transform="translate(321,146)"/>
<path d="M0 0 C0.66 0 1.32 0 2 0 C2 3.3 2 6.6 2 10 C1.34 10 0.68 10 0 10 C0 9.01 0 8.02 0 7 C-1.98 7 -3.96 7 -6 7 C-5.04882866 5.8274869 -4.08882991 4.66212985 -3.125 3.5 C-2.59132813 2.8503125 -2.05765625 2.200625 -1.5078125 1.53125 C-0.76144531 0.77328125 -0.76144531 0.77328125 0 0 Z " fill="#323232" transform="translate(294,131)"/>
<path d="M0 0 C3.93673644 1.31224548 6.22719294 2.91910327 9 6 C6.69 6.33 4.38 6.66 2 7 C1.67 7.99 1.34 8.98 1 10 C-0.1577506 6.52674819 -0.06866652 3.63932552 0 0 Z " fill="#191919" transform="translate(170,143)"/>
<path d="M0 0 C1.2065625 0.0309375 1.2065625 0.0309375 2.4375 0.0625 C2.4375 0.7225 2.4375 1.3825 2.4375 2.0625 C1.1175 2.0625 -0.2025 2.0625 -1.5625 2.0625 C-1.5625 2.7225 -1.5625 3.3825 -1.5625 4.0625 C-0.2425 4.3925 1.0775 4.7225 2.4375 5.0625 C1.1175 5.3925 -0.2025 5.7225 -1.5625 6.0625 C-1.5625 6.7225 -1.5625 7.3825 -1.5625 8.0625 C0.0875 8.0625 1.7375 8.0625 3.4375 8.0625 C2.7775 8.7225 2.1175 9.3825 1.4375 10.0625 C0.1175 10.0625 -1.2025 10.0625 -2.5625 10.0625 C-2.75662181 8.58418779 -2.94262131 7.10480684 -3.125 5.625 C-3.22941406 4.80128906 -3.33382812 3.97757812 -3.44140625 3.12890625 C-3.48136719 2.44699219 -3.52132812 1.76507813 -3.5625 1.0625 C-2.5625 0.0625 -2.5625 0.0625 0 0 Z " fill="#2D2D2D" transform="translate(219.5625,122.9375)"/>
<path d="M0 0 C2.5625 0.3125 2.5625 0.3125 4.4375 1.5 C5.5625 3.3125 5.5625 3.3125 5.375 5.9375 C4.5625 8.3125 4.5625 8.3125 2.5625 9.3125 C2.5625 7.3325 2.5625 5.3525 2.5625 3.3125 C1.2425 3.3125 -0.0775 3.3125 -1.4375 3.3125 C-1.7675 4.9625 -2.0975 6.6125 -2.4375 8.3125 C-3.0975 7.9825 -3.7575 7.6525 -4.4375 7.3125 C-4.5625 4.9375 -4.5625 4.9375 -4.4375 2.3125 C-2.4375 0.3125 -2.4375 0.3125 0 0 Z " fill="#2A2A2A" transform="translate(371.4375,275.6875)"/>
<path d="M0 0 C0.66 0 1.32 0 2 0 C2.99 2.31 3.98 4.62 5 7 C3.3603125 7.2165625 3.3603125 7.2165625 1.6875 7.4375 C-1.93122987 7.88288104 -1.93122987 7.88288104 -5 9 C-4 6 -4 6 -1.9375 4.8125 C-1.298125 4.544375 -0.65875 4.27625 0 4 C0 2.68 0 1.36 0 0 Z " fill="#2C2C2C" transform="translate(359,187)"/>
<path d="M0 0 C0.33 0 0.66 0 1 0 C1 1.65 1 3.3 1 5 C-5.625 5.125 -5.625 5.125 -9 4 C-9 3.34 -9 2.68 -9 2 C-6.36 2.33 -3.72 2.66 -1 3 C-0.67 2.01 -0.34 1.02 0 0 Z " fill="#323232" transform="translate(120,228)"/>
<path d="M0 0 C1.65 1.65 3.3 3.3 5 5 C4.4225 5.103125 3.845 5.20625 3.25 5.3125 C0.68043567 6.09764466 -0.88366695 7.377478 -3 9 C-3.66 9 -4.32 9 -5 9 C-5 8.34 -5 7.68 -5 7 C-1.53846154 4 -1.53846154 4 1 4 C0.67 2.68 0.34 1.36 0 0 Z " fill="#1F1F1F" transform="translate(349,172)"/>
<path d="M0 0 C0.66 0 1.32 0 2 0 C1.01 2.97 0.02 5.94 -1 9 C-2.65 8.67 -4.3 8.34 -6 8 C-6 7.34 -6 6.68 -6 6 C-5.34 6 -4.68 6 -4 6 C-4 6.66 -4 7.32 -4 8 C-3.34 8 -2.68 8 -2 8 C-1.855625 6.865625 -1.71125 5.73125 -1.5625 4.5625 C-1 1 -1 1 0 0 Z " fill="#373737" transform="translate(278,125)"/>
<path d="M0 0 C0.33 0.99 0.66 1.98 1 3 C1.99 3 2.98 3 4 3 C4 3.66 4 4.32 4 5 C-1.53846154 4.38461538 -1.53846154 4.38461538 -3.875 2.4375 C-4.24625 1.963125 -4.6175 1.48875 -5 1 C-3.35 0.67 -1.7 0.34 0 0 Z " fill="#282828" transform="translate(366,299)"/>
<path d="M0 0 C2.86697492 1.28519565 4.97607712 2.57129254 7 5 C7 5.66 7 6.32 7 7 C4.13302508 5.71480435 2.02392288 4.42870746 0 2 C0 1.34 0 0.68 0 0 Z " fill="#2D2D2D" transform="translate(334,343)"/>
<path d="M0 0 C2.31 0 4.62 0 7 0 C6.67 1.65 6.34 3.3 6 5 C5.01 5 4.02 5 3 5 C3 4.01 3 3.02 3 2 C2.01 1.34 1.02 0.68 0 0 Z " fill="#757575" transform="translate(371,238)"/>
<path d="M0 0 C0.99 0.33 1.98 0.66 3 1 C3.33 1.99 3.66 2.98 4 4 C3.01 4.33 2.02 4.66 1 5 C0.67 5.99 0.34 6.98 0 8 C-0.79953138 4.71303767 -1.09658936 3.28976808 0 0 Z " fill="#4F4F4F" transform="translate(171,145)"/>
<path d="M0 0 C1.9375 0.8125 1.9375 0.8125 4 2 C4.33 2.99 4.66 3.98 5 5 C2.69 4.34 0.38 3.68 -2 3 C-1.34 2.01 -0.68 1.02 0 0 Z " fill="#3C3C3C" transform="translate(337,159)"/>
<path d="M0 0 C1.98 0.495 1.98 0.495 4 1 C3.67 2.32 3.34 3.64 3 5 C1.68 4.67 0.36 4.34 -1 4 C-0.67 2.68 -0.34 1.36 0 0 Z " fill="#696969" transform="translate(155,154)"/>
<path d="M0 0 C0 0.66 0 1.32 0 2 C-4.43076923 4.09230769 -4.43076923 4.09230769 -7.3125 3.625 C-7.869375 3.41875 -8.42625 3.2125 -9 3 C-3.375 0 -3.375 0 0 0 Z " fill="#292929" transform="translate(369,205)"/>
</svg>
